# xmcd
#
# Track frame offsets: 
#        150
#        18723
#        34074
#        50770
#        73554
#        91179
#        106716
#        123145
#        141735
#        163956
#        181789
#        201617
#        222456
#
# Disc length: 3163 seconds
#
# Revision: 0
# Processed by: cddbd v1.5.2PL0 Copyright (c) Steve Scherf et al.
# Submitted via: ExactAudioCopy v1.0b3
#
DISCID=c50c590d
DTITLE=Brenn Hill - Ode To Selway
DYEAR=2013
DGENRE=Country
TTITLE0=Ode To Selway
TTITLE1=Breakaway Runaway
TTITLE2=Blacktail Butte
TTITLE3=Riding Job
TTITLE4=Cowgirls Goodbye
TTITLE5=Ones That Changed Our Lives
TTITLE6=Brianna
TTITLE7=Bristlecone Pine
TTITLE8=It Wasn't California (Live)
TTITLE9=Salmon River Motel
TTITLE10=Rawhide Braider (Live)
TTITLE11=Angels In My Room
TTITLE12=Fifty Years Ago
EXTD=
EXTT0=
EXTT1=
EXTT2=
EXTT3=
EXTT4=
EXTT5=
EXTT6=
EXTT7=
EXTT8=
EXTT9=
EXTT10=
EXTT11=
EXTT12=
PLAYORDER=
